<svg width="560" height="376" viewBox="0 0 560 376" fill="none" xmlns="http://www.w3.org/2000/svg">
  <g clip-path="url(#clip0)">
    <g clip-path="url(#clip1)">
      <rect x="36" y="72" width="440" height="266" rx="16" fill="#4074BC" fill-opacity="0.03"/>
    </g>
    <rect x="36.5" y="72.5" width="439" height="265" rx="15.5" stroke="#94A3B8" stroke-opacity="0.1"/>
    <g filter="url(#filter0_d)">
      <rect x="160" y="50" width="360" height="256" rx="16" fill="white"/>

      <rect x="200" y="100" width="20" height="120" rx="5" fill="#E0CB00" />
      <rect x="250" y="130" width="20" height="90" rx="5" fill="#E0CB00" />
      <rect x="300" y="160" width="20" height="60" rx="5" fill="#E0CB00" />
      <rect x="350" y="110" width="20" height="110" rx="5" fill="#E0CB00" />
      <rect x="400" y="140" width="20" height="80" rx="5" fill="#E0CB00" />

      <rect x="200" y="100" width="30" height="120" rx="5" fill="#4074BC" fill-opacity="0.1" />
      <rect x="250" y="130" width="30" height="90" rx="5" fill="#4074BC" fill-opacity="0.1" />
      <rect x="300" y="160" width="30" height="60" rx="5" fill="#4074BC" fill-opacity="0.1" />
      <rect x="350" y="110" width="30" height="110" rx="5" fill="#4074BC" fill-opacity="0.1" />
      <rect x="400" y="140" width="30" height="80" rx="5" fill="#4074BC" fill-opacity="0.1" />

      <line x1="180" y1="250" x2="460" y2="250" stroke="#94A3B8" stroke-opacity="0.1"/>
      <line x1="180" y1="200" x2="460" y2="200" stroke="#94A3B8" stroke-opacity="0.1"/>
      <line x1="180" y1="150" x2="460" y2="150" stroke="#94A3B8" stroke-opacity="0.1"/>
      <line x1="180" y1="100" x2="460" y2="100" stroke="#94A3B8" stroke-opacity="0.1"/>

    </g>
  </g>
  <defs>
    <filter id="filter0_d" x="130" y="20" width="400" height="316" filterUnits="userSpaceOnUse" color-interpolation-filters="sRGB">
      <feFlood flood-opacity="0" result="BackgroundImageFix"/>
      <feColorMatrix in="SourceAlpha" type="matrix" values="0 0 0 0 0 0 0 0 0 0 0 0 0 0 0 0 0 0 127 0" result="hardAlpha"/>
      <feOffset dy="10"/>
      <feGaussianBlur stdDeviation="15"/>
      <feColorMatrix type="matrix" values="0 0 0 0 0.0941176 0 0 0 0 0.152941 0 0 0 0 0.294118 0 0 0 0.06 0"/>
      <feBlend mode="normal" in2="BackgroundImageFix" result="effect1_dropShadow"/>
      <feBlend mode="normal" in="SourceGraphic" in2="effect1_dropShadow" result="shape"/>
    </filter>
    <clipPath id="clip0">
      <rect width="560" height="376" fill="white"/>
    </clipPath>
    <clipPath id="clip1">
      <rect x="36" y="72" width="440" height="266" rx="16" fill="white"/>
    </clipPath>
  </defs>
</svg>
